<?xml version="1.0" encoding="UTF-8" standalone="no"?><!DOCTYPE svg PUBLIC "-//W3C//DTD SVG 1.1//EN" "http://www.w3.org/Graphics/SVG/1.1/DTD/svg11.dtd"><svg width="100%" height="100%" viewBox="0 0 1280 800" version="1.1" xmlns="http://www.w3.org/2000/svg" xmlns:xlink="http://www.w3.org/1999/xlink" xml:space="preserve" style="fill-rule:evenodd;clip-rule:evenodd;stroke-linejoin:round;stroke-miterlimit:1.41421;"><g><rect x="586.223" y="78.339" width="107.554" height="107.554" style="fill:#6f6f6f;"/><rect x="841.766" y="78.339" width="107.554" height="107.554" style="fill:#f1f1f1;"/><rect x="458.451" y="78.339" width="107.554" height="107.554" style="fill:#dec8d6;"/><rect x="713.994" y="78.339" width="107.554" height="107.554" style="fill:#b9b9b9;"/><rect x="330.68" y="78.339" width="107.554" height="107.554" style="fill:#8f6f83;"/></g><rect x="716.42" y="244.291" width="107.554" height="107.554" style="fill:#4d4b4b;"/><rect x="841.766" y="244.291" width="107.554" height="107.554" style="fill:#f2f2f2;"/><rect x="586.223" y="244.291" width="107.554" height="107.554" style="fill:#cedec8;"/><rect x="330.68" y="244.291" width="107.554" height="107.554" style="fill:#81aa61;"/><rect x="460.877" y="244.291" width="107.554" height="107.554" style="fill:#a8d387;"/><rect x="716.42" y="410.243" width="107.554" height="107.554" style="fill:#4d4b4b;"/><rect x="841.766" y="410.243" width="107.554" height="107.554" style="fill:#f1f1f1;"/><rect x="586.223" y="410.243" width="107.554" height="107.554" style="fill:#c8dcde;"/><rect x="330.68" y="410.243" width="107.554" height="107.554" style="fill:#407477;"/><rect x="460.877" y="410.243" width="107.554" height="107.554" style="fill:#87ced3;"/><rect x="716.42" y="576.195" width="107.554" height="107.554" style="fill:#4d4b4b;"/><rect x="841.766" y="576.195" width="107.554" height="107.554" style="fill:#f1f1f1;"/><rect x="586.223" y="576.195" width="107.554" height="107.554" style="fill:#dec8ca;"/><rect x="330.68" y="576.195" width="107.554" height="107.554" style="fill:#965d60;"/><rect x="460.877" y="576.195" width="107.554" height="107.554" style="fill:#d3878c;"/></svg>